# xmcd
#
# Track frame offsets:
#	150
#	16083
#	26855
#	36401
#	47880
#	58572
#	72424
#	86740
#	101811
#	118618
#	134712
#	145110
#	165724
#	179049
#	202170
#
# Disc length: 2820 seconds
# Revision: 0
# Processed by: cddbd v1.5.2PL0 Copyright (c) Steve Scherf et al.
# Submitted via: dBpowerAMP V12.0
#
DISCID=e90b020f
DTITLE=Buffalo Gals (West) - Buffalo Gals (West)
DYEAR=2009
DGENRE=Country
TTITLE0=Deep River Blues
TTITLE1=Big Time Woman
TTITLE2=The Coast is Clear/Red Hills Polka
TTITLE3=Pipeline/Irish Polkas
TTITLE4=I've Just Seen a Face
TTITLE5=Your Feets Too Big
TTITLE6=Florida Blues
TTITLE7=Tennessee Waltz
TTITLE8=Liza Jane/Squirrel Heads and Gravy
TTITLE9=Workin' On a New Railroad
TTITLE10=Singing My Troubles Away
TTITLE11=I Can't Give You Anything But Love
TTITLE12=Es El Amor Mariposa
TTITLE13=Northern Aire/Handsome Molly
TTITLE14=Tumblin' Tumbleweeds
EXTD=
EXTT0=
EXTT1=
EXTT2=
EXTT3=
EXTT4=
EXTT5=
EXTT6=
EXTT7=
EXTT8=
EXTT9=
EXTT10=
EXTT11=
EXTT12=
EXTT13=
EXTT14=
PLAYORDER=
